<?xml version="1.0" encoding="utf-8"?>
<!-- Generator: Adobe Illustrator 19.2.1, SVG Export Plug-In . SVG Version: 6.00 Build 0)  -->
<svg version="1.1" id="layer" xmlns="http://www.w3.org/2000/svg" xmlns:xlink="http://www.w3.org/1999/xlink" x="0px" y="0px"
	 viewBox="0 0 652 652" style="enable-background:new 0 0 652 652;" xml:space="preserve">
<style type="text/css">
	.st0{fill:#E2001A;}
	.st1{fill:#1A171B;}
</style>
<rect x="25" y="25" class="st0" width="25" height="25"/>
<path class="st1" d="M166.1,168.5c10.9-0.3,19.5-9.3,19.3-20.2c-0.3-10.5-8.7-19-19.3-19.3H73.5V76.2H170c37,0,68.1,28.7,68.1,72.5
	c0,30.2-15.1,45.9-15.1,45.9c9.8,12.6,15.2,28.1,15.1,44.1c0,37.9-31.2,71-67.7,71H73.5v-52h93.3c10.5,0,19-8.5,19-19
	c0-10.5-8.5-19-19-19H73.5v-51.3H166.1z M73.5,337.8h158.8v52.4H73.5V337.8z M73.5,466h107.1V411h51.7v163.3h-51.7v-55H73.5V466z
	 M570,168.9c0.5,39.5-31.1,72-70.7,72.5c-39.5,0.5-72-31.1-72.5-70.7c0-0.6,0-1.2,0-1.8V76.2h51.6V168c0.3,11.1,9.5,19.8,20.5,19.6
	c10.7-0.3,19.3-8.9,19.6-19.6V76.2h51.6L570,168.9z M362.4,158.4c0-17.2-13.9-31.2-31.2-31.2c-17.2,0-31.2,13.9-31.2,31.2
	c0,17.2,13.9,31.2,31.2,31.2c7.1,0,13.9-2.4,19.5-6.8v55.7c-44.7,10.5-89.5-17.2-100-61.9s17.2-89.5,61.9-100s89.5,17.2,100,61.9
	c1.5,6.3,2.2,12.7,2.2,19.1v80.1h-52.4L362.4,158.4z"/>
</svg>
